<svg width="50" height="50" viewBox="0 0 50 50" fill="none" xmlns="http://www.w3.org/2000/svg">
<path id="Vector" d="M25 16.6786C20.3929 16.6786 16.6786 20.4286 16.6786 25C16.6786 29.5714 20.4286 33.3214 25 33.3214C29.5714 33.3214 33.3214 29.5714 33.3214 25C33.3214 20.4286 29.5714 16.6786 25 16.6786ZM50 25C50 21.5357 50 18.1429 49.8214 14.6786C49.6429 10.6786 48.7143 7.10714 45.7857 4.21429C42.8572 1.28571 39.3214 0.357143 35.3214 0.178571C31.8572 -1.7296e-07 28.4643 0 25 0C21.5357 0 18.1429 -1.7296e-07 14.6786 0.178571C10.6786 0.357143 7.10715 1.28571 4.21429 4.21429C1.28572 7.14286 0.357143 10.6786 0.178571 14.6786C-1.7296e-07 18.1429 0 21.5357 0 25C0 28.4643 -1.7296e-07 31.8571 0.178571 35.3214C0.357143 39.3214 1.28572 42.8929 4.21429 45.7857C7.14286 48.7143 10.6786 49.6429 14.6786 49.8214C18.1429 50 21.5357 50 25 50C28.4643 50 31.8572 50 35.3214 49.8214C39.3214 49.6429 42.8929 48.7143 45.7857 45.7857C48.7143 42.8571 49.6429 39.3214 49.8214 35.3214C50.0357 31.8929 50 28.4643 50 25ZM25 37.8214C17.8929 37.8214 12.1786 32.1071 12.1786 25C12.1786 17.8929 17.8929 12.1786 25 12.1786C32.1072 12.1786 37.8214 17.8929 37.8214 25C37.8214 32.1071 32.1072 37.8214 25 37.8214ZM38.3572 14.6429C36.7143 14.6429 35.3572 13.3214 35.3572 11.6429C35.3572 9.96429 36.6786 8.64286 38.3572 8.64286C40.0357 8.64286 41.3572 9.96429 41.3572 11.6429C41.3662 12.0341 41.2948 12.4229 41.1473 12.7854C40.9999 13.1479 40.7796 13.4762 40.5 13.75C40.2262 14.0295 39.8979 14.2499 39.5354 14.3973C39.173 14.5448 38.7841 14.6162 38.3929 14.6071L38.3572 14.6429Z" fill="#F8F8F8"/>
</svg>
