<svg width="50" height="50" viewBox="0 0 50 50" fill="none" xmlns="http://www.w3.org/2000/svg">
<path id="Vector" fill-rule="evenodd" clip-rule="evenodd" d="M7.14505 0C5.25065 0 3.43384 0.752549 2.09429 2.09209C0.754746 3.43164 0.00219727 5.24845 0.00219727 7.14286V42.8571C0.00219727 44.7515 0.754746 46.5684 2.09429 47.9079C3.43384 49.2474 5.25065 50 7.14505 50H42.8593C44.7537 50 46.5706 49.2474 47.9101 47.9079C49.2496 46.5684 50.0022 44.7515 50.0022 42.8571V7.14286C50.0022 5.24845 49.2496 3.43164 47.9101 2.09209C46.5706 0.752549 44.7537 0 42.8593 0H7.14505ZM11.0808 15.3464C12.2127 15.3464 13.2982 14.8968 14.0986 14.0964C14.899 13.296 15.3486 12.2105 15.3486 11.0786C15.3486 9.94667 14.899 8.86112 14.0986 8.06074C13.2982 7.26036 12.2127 6.81071 11.0808 6.81071C9.94886 6.81071 8.86332 7.26036 8.06294 8.06074C7.26256 8.86112 6.81291 9.94667 6.81291 11.0786C6.81291 12.2105 7.26256 13.296 8.06294 14.0964C8.86332 14.8968 9.94886 15.3464 11.0808 15.3464ZM14.6522 42.1893V18.6929H7.50934V42.1893H14.6522ZM19.3951 18.6929H26.5379V21.8393C27.5915 20.1893 29.9058 17.9679 34.2093 17.9679C39.3451 17.9679 42.1343 21.3714 42.1343 27.8464C42.1343 28.1571 42.1629 29.575 42.1629 29.575V42.1857H35.0201V29.5786C35.0201 27.8464 34.6558 24.4429 30.8058 24.4429C26.9522 24.4429 26.6272 28.7214 26.5379 31.5214V42.1857H19.3951V18.6929Z" fill="#F8F8F8"/>
</svg>
